<?xml version="1.0" encoding="UTF-8" standalone="no"?>
<svg
   xmlns:dc="http://purl.org/dc/elements/1.1/"
   xmlns:cc="http://creativecommons.org/ns#"
   xmlns:rdf="http://www.w3.org/1999/02/22-rdf-syntax-ns#"
   xmlns:svg="http://www.w3.org/2000/svg"
   xmlns="http://www.w3.org/2000/svg"
   viewBox="0 0 426.66666 626.66669"
   height="626.66669"
   width="426.66666"
   xml:space="preserve"
   id="svg2"
   version="1.1"><metadata
     id="metadata8"><rdf:RDF><cc:Work
         rdf:about=""><dc:format>image/svg+xml</dc:format><dc:type
           rdf:resource="http://purl.org/dc/dcmitype/StillImage" /></cc:Work></rdf:RDF></metadata><defs
     id="defs6" /><g
     transform="matrix(1.3333333,0,0,-1.3333333,0,626.66667)"
     id="g10"><g
       transform="translate(-1692,-1584)"
       id="g12"><path
         id="path14"
         style="fill:#231f20;fill-opacity:1;fill-rule:evenodd;stroke:none"
         d="m 1700.9342,1687.8809 20.5971,1.2622 c 0.4464,-3.2717 1.3558,-5.7641 2.7279,-7.4771 2.2344,-2.7728 5.4256,-4.1592 9.5736,-4.1592 3.0958,0 5.4811,0.7117 7.1562,2.1352 1.675,1.4235 2.5125,3.0734 2.5125,4.9496 0,1.7832 -0.7918,3.3789 -2.3754,4.7874 -1.5836,1.4074 -5.278,2.7367 -11.0832,3.9879 -9.5057,2.0967 -16.2841,4.8805 -20.335,8.3516 -4.0837,3.4701 -6.1255,7.8943 -6.1255,13.2727 0,3.5331 1.0454,6.8709 3.1363,10.0134 2.0909,3.1425 5.2351,5.6126 9.4327,7.4102 4.1976,1.7976 9.9514,2.6964 17.2615,2.6964 8.9694,0 15.8083,-1.6381 20.5167,-4.9143 4.7084,-3.2762 7.5096,-8.4885 8.4036,-15.637 l -20.401,-1.1826 c -0.5425,3.1235 -1.6837,5.3949 -3.4236,6.8144 -1.74,1.4195 -4.1419,2.1292 -7.2059,2.1292 -2.5216,0 -4.4208,-0.5239 -5.698,-1.5717 -1.2771,-1.0478 -1.9156,-2.3226 -1.9156,-3.8242 0,-1.0949 0.5164,-2.0801 1.5494,-2.9556 1.0012,-0.9076 3.416,-1.7526 7.2442,-2.5349 9.4741,-2.0026 16.2606,-4.0293 20.3596,-6.0804 4.0989,-2.0511 7.0815,-4.5955 8.9476,-7.6333 1.8661,-3.0378 2.7991,-6.4355 2.7991,-10.193 0,-4.4157 -1.2444,-8.4868 -3.7332,-12.2134 -2.4888,-3.7264 -5.9666,-6.5526 -10.4334,-8.4785 -4.4668,-1.9258 -10.0983,-2.8887 -16.8945,-2.8887 -11.9333,0 -20.1974,2.2526 -24.7924,6.758 -4.595,4.5053 -7.1955,10.2306 -7.8013,17.1757 z" /><path
         id="path16"
         style="fill:#231f20;fill-opacity:1;fill-rule:evenodd;stroke:none"
         d="m 1766.5281,1715.0122 h 18.8454 l 8.1929,-31.3372 10.3889,31.3372 h 17.4662 l 10.7522,-31.3762 8.2158,31.3762 h 18.7274 l -18.7197,-49.911 h -17.3313 l -10.2924,30.0313 -9.9568,-30.0313 h -17.4263 z" /><path
         id="path18"
         style="fill:#231f20;fill-opacity:1;fill-rule:evenodd;stroke:none"
         d="m 1863.6204,1733.9572 h 19.5182 v -12.9826 h -19.5182 z m 0,-18.945 h 19.5182 v -49.911 h -19.5182 z" /><path
         id="path20"
         style="fill:#231f20;fill-opacity:1;fill-rule:evenodd;stroke:none"
         d="m 1890.2338,1678.9493 19.322,1.731 c 0.799,-2.2389 1.9172,-3.8404 3.3547,-4.8046 1.4375,-0.9642 3.3547,-1.4463 5.7516,-1.4463 2.6196,0 4.6481,0.5485 6.0856,1.6454 1.1188,0.8144 1.6781,1.8332 1.6781,3.0563 0,1.3784 -0.7345,2.4438 -2.2037,3.1961 -1.0534,0.5329 -3.8456,1.1911 -8.3768,1.9744 -6.7646,1.1601 -11.4633,2.2334 -14.0961,3.2201 -2.6329,0.9867 -4.8507,2.6552 -6.6535,5.0053 -1.8027,2.3501 -2.7041,5.0287 -2.7041,8.036 0,3.2897 0.9724,6.1252 2.9171,8.5063 1.9448,2.3812 4.6229,4.1593 8.0343,5.3343 3.4114,1.1751 7.9865,1.7626 13.7253,1.7626 6.0585,0 10.5304,-0.4551 13.4157,-1.3651 2.8852,-0.9101 5.2923,-2.3221 7.2212,-4.2359 1.929,-1.9139 3.5309,-4.5026 4.806,-7.7663 l -18.4393,-1.731 c -0.4771,1.5887 -1.2725,2.7573 -2.3862,3.5056 -1.5274,0.9967 -3.3725,1.4951 -5.5354,1.4951 -2.1956,0 -3.7945,-0.3839 -4.7968,-1.1518 -1.0023,-0.7678 -1.5034,-1.7002 -1.5034,-2.7971 0,-1.2221 0.6324,-2.1467 1.8973,-2.7738 1.2638,-0.6271 4.0336,-1.1916 8.3093,-1.6935 6.4785,-0.7202 11.2972,-1.7227 14.4563,-3.0075 3.159,-1.2847 5.576,-3.1182 7.2511,-5.5003 1.675,-2.3822 2.5126,-4.9992 2.5126,-7.8512 0,-2.883 -0.8856,-5.6879 -2.6566,-8.4147 -1.7711,-2.7267 -4.5634,-4.897 -8.3768,-6.5108 -3.8135,-1.6138 -9.0074,-2.4207 -15.5819,-2.4207 -9.2861,0 -15.8997,1.3009 -19.8408,3.903 -3.9412,2.602 -6.4701,6.3017 -7.5868,11.0991 z" /><path
         id="path22"
         style="fill:#231f20;fill-opacity:1;fill-rule:evenodd;stroke:none"
         d="m 1948.2558,1678.9493 19.3221,1.731 c 0.7989,-2.2389 1.9172,-3.8404 3.3547,-4.8046 1.4375,-0.9642 3.3546,-1.4463 5.7515,-1.4463 2.6196,0 4.6482,0.5485 6.0857,1.6454 1.1187,0.8144 1.6781,1.8332 1.6781,3.0563 0,1.3784 -0.7346,2.4438 -2.2038,3.1961 -1.0533,0.5329 -3.8456,1.1911 -8.3767,1.9744 -6.7646,1.1601 -11.4633,2.2334 -14.0962,3.2201 -2.6329,0.9867 -4.8507,2.6552 -6.6535,5.0053 -1.8027,2.3501 -2.7041,5.0287 -2.7041,8.036 0,3.2897 0.9724,6.1252 2.9172,8.5063 1.9448,2.3812 4.6229,4.1593 8.0342,5.3343 3.4115,1.1751 7.9865,1.7626 13.7253,1.7626 6.0586,0 10.5305,-0.4551 13.4157,-1.3651 2.8852,-0.9101 5.2923,-2.3221 7.2213,-4.2359 1.9289,-1.9139 3.5309,-4.5026 4.8059,-7.7663 l -18.4393,-1.731 c -0.4771,1.5887 -1.2725,2.7573 -2.3861,3.5056 -1.5274,0.9967 -3.3726,1.4951 -5.5355,1.4951 -2.1956,0 -3.7945,-0.3839 -4.7968,-1.1518 -1.0022,-0.7678 -1.5034,-1.7002 -1.5034,-2.7971 0,-1.2221 0.6324,-2.1467 1.8973,-2.7738 1.2638,-0.6271 4.0336,-1.1916 8.3093,-1.6935 6.4785,-0.7202 11.2973,-1.7227 14.4563,-3.0075 3.1591,-1.2847 5.5761,-3.1182 7.2511,-5.5003 1.6751,-2.3822 2.5126,-4.9992 2.5126,-7.8512 0,-2.883 -0.8855,-5.6879 -2.6566,-8.4147 -1.7711,-2.7267 -4.5634,-4.897 -8.3768,-6.5108 -3.8134,-1.6138 -9.0074,-2.4207 -15.5819,-2.4207 -9.2861,0 -15.8997,1.3009 -19.8408,3.903 -3.9411,2.602 -6.47,6.3017 -7.5868,11.0991 z" /><path
         id="path24"
         style="fill:#cd071e;fill-opacity:1;fill-rule:nonzero;stroke:#ffffff;stroke-width:3;stroke-linecap:butt;stroke-linejoin:miter;stroke-miterlimit:3.86360002;stroke-dasharray:none;stroke-opacity:1"
         d="m 1714.0422,1906.9462 c 0,76.0319 61.6374,137.6661 137.6733,137.6661 76.0359,0 137.6733,-61.6342 137.6733,-137.6661 0,-76.0319 -61.6374,-137.6661 -137.6733,-137.6661 -76.0359,0 -137.6733,61.6342 -137.6733,137.6661 z" /><path
         id="path26"
         style="fill:#cd071e;fill-opacity:1;fill-rule:nonzero;stroke:none"
         d="m 1714.0422,1906.9462 c 0,76.0319 61.6374,137.6661 137.6733,137.6661 76.0359,0 137.6733,-61.6342 137.6733,-137.6661 0,-76.0319 -61.6374,-137.6661 -137.6733,-137.6661 -76.0359,0 -137.6733,61.6342 -137.6733,137.6661 z" /><path
         id="path28"
         style="fill:#ffffff;fill-opacity:1;fill-rule:nonzero;stroke:none"
         d="m 1760.4754,1876.4022 v 61.0793 h 60.7018 v 60.6972 h 61.0845 l -10e-5,-60.6972 h 60.694 v -61.0793 h -60.694 l 10e-5,-60.6885 h -61.0845 v 60.6885 z" /><path
         id="path30"
         style="fill:#bdbcbc;fill-opacity:1;fill-rule:evenodd;stroke:none"
         d="m 1721.289,1642.377 h 19.2351 c 4.1888,0 7.3263,-0.9778 9.4125,-2.9333 2.0863,-1.9555 3.1294,-4.7383 3.1294,-8.3483 0,-3.7103 -1.1379,-6.6099 -3.4136,-8.699 -2.2756,-2.0889 -5.7488,-3.1334 -10.4194,-3.1334 h -6.3412 v -13.5814 h -11.6028 z m 11.6028,-15.6827 h 2.8509 c 2.2425,0 3.8175,0.3804 4.725,1.1411 0.9076,0.7608 1.3614,1.7345 1.3614,2.9213 0,1.1537 -0.3938,2.1317 -1.1813,2.9341 -0.7875,0.8024 -2.2685,1.2036 -4.4429,1.2036 h -3.3131 z" /><path
         id="path32"
         style="fill:#bdbcbc;fill-opacity:1;fill-rule:evenodd;stroke:none"
         d="m 1767.2697,1623.6705 -9.9303,1.025 c 0.374,1.7052 0.9135,3.0468 1.6186,4.0248 0.705,0.978 1.7203,1.8266 3.046,2.5457 0.9517,0.5179 2.2602,0.9189 3.9256,1.2032 1.6654,0.2843 3.4669,0.4264 5.4045,0.4264 3.1097,0 5.6077,-0.1712 7.4938,-0.5137 1.8862,-0.3425 3.4581,-1.0566 4.7157,-2.1425 0.8836,-0.7517 1.5803,-1.8167 2.0902,-3.1951 0.5098,-1.3785 0.7647,-2.6939 0.7647,-3.9464 v -11.7531 c 0,-1.253 0.081,-2.2345 0.2426,-2.9446 0.1617,-0.71 0.5147,-1.6162 1.0592,-2.7186 h -9.7343 c -0.3904,0.6796 -0.645,1.1975 -0.764,1.5539 -0.1189,0.3564 -0.2378,0.9157 -0.3565,1.6781 -1.361,-1.2824 -2.7136,-2.1982 -4.0578,-2.7476 -1.838,-0.7329 -3.9735,-1.0994 -6.4065,-1.0994 -3.2333,0 -5.688,0.7363 -7.364,2.2089 -1.676,1.4727 -2.514,3.2882 -2.514,5.4466 0,2.025 0.604,3.6901 1.8121,4.9953 1.208,1.3053 3.4372,2.2759 6.6874,2.9117 3.897,0.7699 6.4241,1.3096 7.5812,1.6192 1.1572,0.3096 2.3823,0.7154 3.6753,1.2172 0,1.253 -0.2631,2.13 -0.7893,2.631 -0.5262,0.501 -1.4515,0.7516 -2.7761,0.7516 -1.6975,0 -2.9707,-0.2691 -3.8194,-0.8072 -0.6626,-0.4202 -1.1975,-1.2103 -1.6047,-2.3704 z m 8.9895,-5.3301 c -1.4313,-0.5055 -2.9225,-0.9524 -4.4735,-1.3404 -2.1129,-0.5563 -3.4506,-1.1041 -4.013,-1.6433 -0.5793,-0.5563 -0.8689,-1.1884 -0.8689,-1.8963 0,-0.8093 0.2855,-1.471 0.8563,-1.9851 0.5708,-0.5141 1.4102,-0.7712 2.518,-0.7712 1.1586,0 2.2363,0.2782 3.2331,0.8344 0.9969,0.5563 1.7041,1.2349 2.1216,2.0357 0.4176,0.8008 0.6264,1.8418 0.6264,3.123 z" /><path
         id="path34"
         style="fill:#bdbcbc;fill-opacity:1;fill-rule:evenodd;stroke:none"
         d="m 1792.7048,1632.2806 h 9.7375 v -4.3363 c 0.9381,1.884 1.9059,3.1803 2.9036,3.8887 0.9976,0.7084 2.2295,1.0626 3.6957,1.0626 1.5347,0 3.2145,-0.4708 5.0394,-1.4126 l -3.2232,-7.2327 c -1.2277,0.5018 -2.1998,0.7527 -2.9162,0.7527 -1.3643,0 -2.4216,-0.552 -3.1719,-1.656 -1.0746,-1.5557 -1.612,-4.4665 -1.612,-8.7326 v -8.9328 h -10.4529 z" /><path
         id="path36"
         style="fill:#bdbcbc;fill-opacity:1;fill-rule:evenodd;stroke:none"
         d="m 1825.9193,1623.6705 -9.9303,1.025 c 0.374,1.7052 0.9136,3.0468 1.6186,4.0248 0.705,0.978 1.7204,1.8266 3.0461,2.5457 0.9516,0.5179 2.2601,0.9189 3.9255,1.2032 1.6654,0.2843 3.4669,0.4264 5.4045,0.4264 3.1098,0 5.6077,-0.1712 7.4939,-0.5137 1.8861,-0.3425 3.458,-1.0566 4.7156,-2.1425 0.8836,-0.7517 1.5803,-1.8167 2.0902,-3.1951 0.5099,-1.3785 0.7648,-2.6939 0.7648,-3.9464 v -11.7531 c 0,-1.253 0.081,-2.2345 0.2425,-2.9446 0.1617,-0.71 0.5148,-1.6162 1.0592,-2.7186 h -9.7343 c -0.3903,0.6796 -0.645,1.1975 -0.764,1.5539 -0.1189,0.3564 -0.2377,0.9157 -0.3564,1.6781 -1.3611,-1.2824 -2.7137,-2.1982 -4.0579,-2.7476 -1.838,-0.7329 -3.9735,-1.0994 -6.4065,-1.0994 -3.2333,0 -5.688,0.7363 -7.364,2.2089 -1.676,1.4727 -2.514,3.2882 -2.514,5.4466 0,2.025 0.604,3.6901 1.8121,4.9953 1.2081,1.3053 3.4372,2.2759 6.6874,2.9117 3.897,0.7699 6.4241,1.3096 7.5813,1.6192 1.1571,0.3096 2.3822,0.7154 3.6752,1.2172 0,1.253 -0.2631,2.13 -0.7892,2.631 -0.5262,0.501 -1.4516,0.7516 -2.7762,0.7516 -1.6975,0 -2.9706,-0.2691 -3.8194,-0.8072 -0.6626,-0.4202 -1.1975,-1.2103 -1.6047,-2.3704 z m 8.9895,-5.3301 c -1.4313,-0.5055 -2.9224,-0.9524 -4.4735,-1.3404 -2.1129,-0.5563 -3.4505,-1.1041 -4.0129,-1.6433 -0.5793,-0.5563 -0.869,-1.1884 -0.869,-1.8963 0,-0.8093 0.2855,-1.471 0.8563,-1.9851 0.5708,-0.5141 1.4102,-0.7712 2.5181,-0.7712 1.1585,0 2.2362,0.2782 3.2331,0.8344 0.9968,0.5563 1.704,1.2349 2.1216,2.0357 0.4176,0.8008 0.6263,1.8418 0.6263,3.123 z" /><path
         id="path38"
         style="fill:#bdbcbc;fill-opacity:1;fill-rule:evenodd;stroke:none"
         d="m 1870.7516,1632.2806 h 9.7138 v -25.0999 l 0.025,-1.1756 c 0,-1.6683 -0.3614,-3.2575 -1.0841,-4.7675 -0.7227,-1.51 -1.6838,-2.7322 -2.8831,-3.6664 -1.1994,-0.9343 -2.7217,-1.6099 -4.5671,-2.0268 -1.8453,-0.4169 -3.9586,-0.6254 -6.3399,-0.6254 -5.4432,0 -9.1811,0.8018 -11.2137,2.4055 -2.0326,1.6038 -3.0489,3.7504 -3.0489,6.44 0,0.3342 0.017,0.7853 0.052,1.3534 l 10.0879,-1.1276 c 0.2553,-0.9134 0.6465,-1.5444 1.1735,-1.893 0.7649,-0.5147 1.7255,-0.772 2.8819,-0.772 1.4966,0 2.6147,0.3904 3.3543,1.1711 0.7396,0.7808 1.1094,2.1428 1.1094,4.0861 v 4.0111 c -1.0208,-1.1868 -2.0413,-2.0476 -3.0615,-2.5825 -1.599,-0.8355 -3.3254,-1.2533 -5.1792,-1.2533 -3.6231,0 -6.5485,1.5538 -8.7763,4.6614 -1.5821,2.2054 -2.3732,5.1205 -2.3732,8.7455 0,4.1433 1.0206,7.3009 3.0616,9.4729 2.041,2.172 4.7114,3.258 8.0112,3.258 2.1085,0 3.8474,-0.3507 5.2167,-1.0522 1.3692,-0.7015 2.6491,-1.8621 3.8398,-3.4819 v 3.9191 z m -9.7809,-12.8847 c 0,-1.923 0.4172,-3.3484 1.2515,-4.2762 0.8344,-0.9279 1.9326,-1.3918 3.2947,-1.3918 1.2941,0 2.3797,0.4807 3.2568,1.4422 0.8771,0.9615 1.3156,2.412 1.3156,4.3515 0,1.9395 -0.4598,3.4234 -1.3793,4.4516 -0.9195,1.0282 -2.0435,1.5423 -3.3719,1.5423 -1.3279,0 -2.3877,-0.4723 -3.1796,-1.417 -0.7918,-0.9446 -1.1878,-2.5122 -1.1878,-4.7026 z" /><path
         id="path40"
         style="fill:#bdbcbc;fill-opacity:1;fill-rule:evenodd;stroke:none"
         d="m 1887.5031,1642.377 h 10.4007 v -36.6954 h -10.4007 z" /><path
         id="path42"
         style="fill:#bdbcbc;fill-opacity:1;fill-rule:evenodd;stroke:none"
         d="m 1904.9245,1642.377 h 10.4007 v -6.9188 h -10.4007 z m 0,-10.0964 h 10.4007 v -26.599 h -10.4007 z" /><path
         id="path44"
         style="fill:#bdbcbc;fill-opacity:1;fill-rule:evenodd;stroke:none"
         d="m 1950.5165,1642.377 v -36.6954 h -9.7384 v 3.935 c -1.3605,-1.6757 -2.602,-2.807 -3.7246,-3.3937 -1.4972,-0.7709 -3.1642,-1.1563 -5.0011,-1.1563 -3.6907,0 -6.5098,1.3789 -8.4575,4.1368 -1.9477,2.758 -2.9215,6.109 -2.9215,10.0532 0,4.4128 1.0758,7.7892 3.2273,10.1292 2.1516,2.3399 4.8857,3.5098 8.2023,3.5098 1.6153,0 3.0821,-0.2661 4.4005,-0.7984 1.3183,-0.5322 2.4876,-1.3306 3.5078,-2.3951 v 12.6749 z m -10.4284,-23.2966 c 0,2.0933 -0.4499,3.6549 -1.3495,4.685 -0.8997,1.0301 -2.0371,1.5451 -3.4123,1.5451 -1.2054,0 -2.2154,-0.494 -3.0302,-1.4822 -0.8147,-0.9882 -1.2221,-2.6461 -1.2221,-4.9737 0,-2.1771 0.4202,-3.7723 1.2605,-4.7856 0.8403,-1.0132 1.8801,-1.5199 3.1192,-1.5199 1.324,0 2.4274,0.5108 3.3102,1.5324 0.8828,1.0215 1.3242,2.6878 1.3242,4.9989 z" /><path
         id="path46"
         style="fill:#bdbcbc;fill-opacity:1;fill-rule:evenodd;stroke:none"
         d="m 1986.9272,1616.4442 h -20.8536 c 0.1878,-1.6352 0.64,-2.8532 1.3564,-3.654 1.0072,-1.1515 2.3214,-1.7273 3.9427,-1.7273 1.0241,0 1.9967,0.2482 2.9179,0.7447 0.5635,0.315 1.1694,0.8697 1.8178,1.6641 l 10.2439,-0.9226 c -1.5669,-2.6693 -3.4574,-4.5837 -5.6715,-5.7432 -2.2142,-1.1596 -5.3907,-1.7393 -9.5294,-1.7393 -3.5937,0 -6.4211,0.4973 -8.482,1.4918 -2.0609,0.9946 -3.7683,2.574 -5.1223,4.7383 -1.354,2.1643 -2.031,4.7089 -2.031,7.6339 0,4.162 1.3578,7.53 4.0734,10.104 2.7156,2.574 6.4653,3.861 11.2492,3.861 3.8817,0 6.9463,-0.5768 9.1936,-1.7305 2.2474,-1.1536 3.9584,-2.8256 5.133,-5.0157 1.1746,-2.1902 1.7619,-5.0406 1.7619,-8.5513 z m -10.5575,4.8688 c -0.2047,1.979 -0.7468,3.3963 -1.6263,4.2518 -0.8795,0.8555 -2.0363,1.2833 -3.4703,1.2833 -1.6567,0 -2.9802,-0.6458 -3.9705,-1.9372 -0.6315,-0.805 -1.0328,-2.0043 -1.2037,-3.5979 z" /><path
         id="path48"
         style="fill:none;stroke:#ffffff;stroke-width:3;stroke-linecap:round;stroke-linejoin:round;stroke-miterlimit:3.86360002;stroke-dasharray:none;stroke-opacity:1"
         d="m 1732.8918,1626.6943 h 2.8509 c 2.2425,0 3.8175,0.3804 4.725,1.1411 0.9076,0.7608 1.3614,1.7345 1.3614,2.9213 0,1.1537 -0.3938,2.1317 -1.1813,2.9341 -0.7875,0.8024 -2.2685,1.2036 -4.4429,1.2036 h -3.3131 z m -11.6028,15.6827 h 19.2351 c 4.1888,0 7.3263,-0.9778 9.4125,-2.9333 2.0863,-1.9555 3.1294,-4.7383 3.1294,-8.3483 0,-3.7103 -1.1379,-6.6099 -3.4136,-8.699 -2.2756,-2.0889 -5.7488,-3.1334 -10.4194,-3.1334 h -6.3412 v -13.5814 h -11.6028 z m 45.9807,-18.7065 -9.9303,1.025 c 0.374,1.7052 0.9135,3.0468 1.6186,4.0248 0.705,0.978 1.7203,1.8266 3.046,2.5457 0.9517,0.5179 2.2602,0.9189 3.9256,1.2032 1.6654,0.2843 3.4669,0.4264 5.4045,0.4264 3.1097,0 5.6077,-0.1712 7.4938,-0.5137 1.8862,-0.3425 3.4581,-1.0566 4.7157,-2.1425 0.8836,-0.7517 1.5803,-1.8167 2.0902,-3.1951 0.5098,-1.3785 0.7647,-2.6939 0.7647,-3.9464 v -11.7531 c 0,-1.253 0.081,-2.2345 0.2426,-2.9446 0.1617,-0.71 0.5147,-1.6162 1.0592,-2.7186 h -9.7343 c -0.3904,0.6796 -0.645,1.1975 -0.764,1.5539 -0.1189,0.3564 -0.2378,0.9157 -0.3565,1.6781 -1.361,-1.2824 -2.7136,-2.1982 -4.0578,-2.7476 -1.838,-0.7329 -3.9735,-1.0994 -6.4065,-1.0994 -3.2333,0 -5.688,0.7363 -7.364,2.2089 -1.676,1.4727 -2.514,3.2882 -2.514,5.4466 0,2.025 0.604,3.6901 1.8121,4.9953 1.208,1.3053 3.4372,2.2759 6.6874,2.9117 3.897,0.7699 6.4241,1.3096 7.5812,1.6192 1.1572,0.3096 2.3823,0.7154 3.6753,1.2172 0,1.253 -0.2631,2.13 -0.7893,2.631 -0.5262,0.501 -1.4515,0.7516 -2.7761,0.7516 -1.6975,0 -2.9707,-0.2691 -3.8194,-0.8072 -0.6626,-0.4202 -1.1975,-1.2103 -1.6047,-2.3704 z m 8.9895,-5.3301 c -1.4313,-0.5055 -2.9225,-0.9524 -4.4735,-1.3404 -2.1129,-0.5563 -3.4506,-1.1041 -4.013,-1.6433 -0.5793,-0.5563 -0.8689,-1.1884 -0.8689,-1.8963 0,-0.8093 0.2855,-1.471 0.8563,-1.9851 0.5708,-0.5141 1.4102,-0.7712 2.518,-0.7712 1.1586,0 2.2363,0.2782 3.2331,0.8344 0.9969,0.5563 1.7041,1.2349 2.1216,2.0357 0.4176,0.8008 0.6264,1.8418 0.6264,3.123 z m 16.4456,13.9402 h 9.7375 v -4.3363 c 0.9381,1.884 1.9059,3.1803 2.9036,3.8887 0.9976,0.7084 2.2295,1.0626 3.6957,1.0626 1.5347,0 3.2145,-0.4708 5.0394,-1.4126 l -3.2232,-7.2327 c -1.2277,0.5018 -2.1998,0.7527 -2.9162,0.7527 -1.3643,0 -2.4216,-0.552 -3.1719,-1.656 -1.0746,-1.5557 -1.612,-4.4665 -1.612,-8.7326 v -8.9328 h -10.4529 z m 33.2145,-8.6101 -9.9303,1.025 c 0.374,1.7052 0.9136,3.0468 1.6186,4.0248 0.705,0.978 1.7204,1.8266 3.0461,2.5457 0.9516,0.5179 2.2601,0.9189 3.9255,1.2032 1.6654,0.2843 3.4669,0.4264 5.4045,0.4264 3.1098,0 5.6077,-0.1712 7.4939,-0.5137 1.8861,-0.3425 3.458,-1.0566 4.7156,-2.1425 0.8836,-0.7517 1.5803,-1.8167 2.0902,-3.1951 0.5099,-1.3785 0.7648,-2.6939 0.7648,-3.9464 v -11.7531 c 0,-1.253 0.081,-2.2345 0.2425,-2.9446 0.1617,-0.71 0.5148,-1.6162 1.0592,-2.7186 h -9.7343 c -0.3903,0.6796 -0.645,1.1975 -0.764,1.5539 -0.1189,0.3564 -0.2377,0.9157 -0.3564,1.6781 -1.3611,-1.2824 -2.7137,-2.1982 -4.0579,-2.7476 -1.838,-0.7329 -3.9735,-1.0994 -6.4065,-1.0994 -3.2333,0 -5.688,0.7363 -7.364,2.2089 -1.676,1.4727 -2.514,3.2882 -2.514,5.4466 0,2.025 0.604,3.6901 1.8121,4.9953 1.2081,1.3053 3.4372,2.2759 6.6874,2.9117 3.897,0.7699 6.4241,1.3096 7.5813,1.6192 1.1571,0.3096 2.3822,0.7154 3.6752,1.2172 0,1.253 -0.2631,2.13 -0.7892,2.631 -0.5262,0.501 -1.4516,0.7516 -2.7762,0.7516 -1.6975,0 -2.9706,-0.2691 -3.8194,-0.8072 -0.6626,-0.4202 -1.1975,-1.2103 -1.6047,-2.3704 z m 8.9895,-5.3301 c -1.4313,-0.5055 -2.9224,-0.9524 -4.4735,-1.3404 -2.1129,-0.5563 -3.4505,-1.1041 -4.0129,-1.6433 -0.5793,-0.5563 -0.869,-1.1884 -0.869,-1.8963 0,-0.8093 0.2855,-1.471 0.8563,-1.9851 0.5708,-0.5141 1.4102,-0.7712 2.5181,-0.7712 1.1585,0 2.2362,0.2782 3.2331,0.8344 0.9968,0.5563 1.704,1.2349 2.1216,2.0357 0.4176,0.8008 0.6263,1.8418 0.6263,3.123 z m 35.8428,13.9402 h 9.7138 v -25.0999 l 0.025,-1.1756 c 0,-1.6683 -0.3614,-3.2575 -1.0841,-4.7675 -0.7227,-1.51 -1.6838,-2.7322 -2.8831,-3.6664 -1.1994,-0.9343 -2.7217,-1.6099 -4.5671,-2.0268 -1.8453,-0.4169 -3.9586,-0.6254 -6.3399,-0.6254 -5.4432,0 -9.1811,0.8018 -11.2137,2.4055 -2.0326,1.6038 -3.0489,3.7504 -3.0489,6.44 0,0.3342 0.017,0.7853 0.052,1.3534 l 10.0879,-1.1276 c 0.2553,-0.9134 0.6465,-1.5444 1.1735,-1.893 0.7649,-0.5147 1.7255,-0.772 2.8819,-0.772 1.4966,0 2.6147,0.3904 3.3543,1.1711 0.7396,0.7808 1.1094,2.1428 1.1094,4.0861 v 4.0111 c -1.0208,-1.1868 -2.0413,-2.0476 -3.0615,-2.5825 -1.599,-0.8355 -3.3254,-1.2533 -5.1792,-1.2533 -3.6231,0 -6.5485,1.5538 -8.7763,4.6614 -1.5821,2.2054 -2.3732,5.1205 -2.3732,8.7455 0,4.1433 1.0206,7.3009 3.0616,9.4729 2.041,2.172 4.7114,3.258 8.0112,3.258 2.1085,0 3.8474,-0.3507 5.2167,-1.0522 1.3692,-0.7015 2.6491,-1.8621 3.8398,-3.4819 v 3.9191 z m -9.7809,-12.8847 c 0,-1.923 0.4172,-3.3484 1.2515,-4.2762 0.8344,-0.9279 1.9326,-1.3918 3.2947,-1.3918 1.2941,0 2.3797,0.4807 3.2568,1.4422 0.8771,0.9615 1.3156,2.412 1.3156,4.3515 0,1.9395 -0.4598,3.4234 -1.3793,4.4516 -0.9195,1.0282 -2.0435,1.5423 -3.3719,1.5423 -1.3279,0 -2.3877,-0.4723 -3.1796,-1.417 -0.7918,-0.9446 -1.1878,-2.5122 -1.1878,-4.7026 z m 26.5324,22.9811 h 10.4007 v -36.6954 h -10.4007 z m 17.4214,0 h 10.4007 v -6.9188 h -10.4007 z m 0,-10.0964 h 10.4007 v -26.599 h -10.4007 z m 45.592,10.0964 v -36.6954 h -9.7384 v 3.935 c -1.3605,-1.6757 -2.602,-2.807 -3.7246,-3.3937 -1.4972,-0.7709 -3.1642,-1.1563 -5.0011,-1.1563 -3.6907,0 -6.5098,1.3789 -8.4575,4.1368 -1.9477,2.758 -2.9215,6.109 -2.9215,10.0532 0,4.4128 1.0758,7.7892 3.2273,10.1292 2.1516,2.3399 4.8857,3.5098 8.2023,3.5098 1.6153,0 3.0821,-0.2661 4.4005,-0.7984 1.3183,-0.5322 2.4876,-1.3306 3.5078,-2.3951 v 12.6749 z m -10.4284,-23.2966 c 0,2.0933 -0.4499,3.6549 -1.3495,4.685 -0.8997,1.0301 -2.0371,1.5451 -3.4123,1.5451 -1.2054,0 -2.2154,-0.494 -3.0302,-1.4822 -0.8147,-0.9882 -1.2221,-2.6461 -1.2221,-4.9737 0,-2.1771 0.4202,-3.7723 1.2605,-4.7856 0.8403,-1.0132 1.8801,-1.5199 3.1192,-1.5199 1.324,0 2.4274,0.5108 3.3102,1.5324 0.8828,1.0215 1.3242,2.6878 1.3242,4.9989 z m 46.8391,-2.6362 h -20.8536 c 0.1878,-1.6352 0.64,-2.8532 1.3564,-3.654 1.0072,-1.1515 2.3214,-1.7273 3.9427,-1.7273 1.0241,0 1.9967,0.2482 2.9179,0.7447 0.5635,0.315 1.1694,0.8697 1.8178,1.6641 l 10.2439,-0.9226 c -1.5669,-2.6693 -3.4574,-4.5837 -5.6715,-5.7432 -2.2142,-1.1596 -5.3907,-1.7393 -9.5294,-1.7393 -3.5937,0 -6.4211,0.4973 -8.482,1.4918 -2.0609,0.9946 -3.7683,2.574 -5.1223,4.7383 -1.354,2.1643 -2.031,4.7089 -2.031,7.6339 0,4.162 1.3578,7.53 4.0734,10.104 2.7156,2.574 6.4653,3.861 11.2492,3.861 3.8817,0 6.9463,-0.5768 9.1936,-1.7305 2.2474,-1.1536 3.9584,-2.8256 5.133,-5.0157 1.1746,-2.1902 1.7619,-5.0406 1.7619,-8.5513 z m -10.5575,4.8688 c -0.2047,1.979 -0.7468,3.3963 -1.6263,4.2518 -0.8795,0.8555 -2.0363,1.2833 -3.4703,1.2833 -1.6567,0 -2.9802,-0.6458 -3.9705,-1.9372 -0.6315,-0.805 -1.0328,-2.0043 -1.2037,-3.5979 z" /><path
         id="path50"
         style="fill:#bdbcbc;fill-opacity:1;fill-rule:evenodd;stroke:none"
         d="m 1721.289,1642.377 h 19.2351 c 4.1888,0 7.3263,-0.9778 9.4125,-2.9333 2.0863,-1.9555 3.1294,-4.7383 3.1294,-8.3483 0,-3.7103 -1.1379,-6.6099 -3.4136,-8.699 -2.2756,-2.0889 -5.7488,-3.1334 -10.4194,-3.1334 h -6.3412 v -13.5814 h -11.6028 z m 11.6028,-15.6827 h 2.8509 c 2.2425,0 3.8175,0.3804 4.725,1.1411 0.9076,0.7608 1.3614,1.7345 1.3614,2.9213 0,1.1537 -0.3938,2.1317 -1.1813,2.9341 -0.7875,0.8024 -2.2685,1.2036 -4.4429,1.2036 h -3.3131 z" /><path
         id="path52"
         style="fill:#bdbcbc;fill-opacity:1;fill-rule:evenodd;stroke:none"
         d="m 1767.2697,1623.6705 -9.9303,1.025 c 0.374,1.7052 0.9135,3.0468 1.6186,4.0248 0.705,0.978 1.7203,1.8266 3.046,2.5457 0.9517,0.5179 2.2602,0.9189 3.9256,1.2032 1.6654,0.2843 3.4669,0.4264 5.4045,0.4264 3.1097,0 5.6077,-0.1712 7.4938,-0.5137 1.8862,-0.3425 3.4581,-1.0566 4.7157,-2.1425 0.8836,-0.7517 1.5803,-1.8167 2.0902,-3.1951 0.5098,-1.3785 0.7647,-2.6939 0.7647,-3.9464 v -11.7531 c 0,-1.253 0.081,-2.2345 0.2426,-2.9446 0.1617,-0.71 0.5147,-1.6162 1.0592,-2.7186 h -9.7343 c -0.3904,0.6796 -0.645,1.1975 -0.764,1.5539 -0.1189,0.3564 -0.2378,0.9157 -0.3565,1.6781 -1.361,-1.2824 -2.7136,-2.1982 -4.0578,-2.7476 -1.838,-0.7329 -3.9735,-1.0994 -6.4065,-1.0994 -3.2333,0 -5.688,0.7363 -7.364,2.2089 -1.676,1.4727 -2.514,3.2882 -2.514,5.4466 0,2.025 0.604,3.6901 1.8121,4.9953 1.208,1.3053 3.4372,2.2759 6.6874,2.9117 3.897,0.7699 6.4241,1.3096 7.5812,1.6192 1.1572,0.3096 2.3823,0.7154 3.6753,1.2172 0,1.253 -0.2631,2.13 -0.7893,2.631 -0.5262,0.501 -1.4515,0.7516 -2.7761,0.7516 -1.6975,0 -2.9707,-0.2691 -3.8194,-0.8072 -0.6626,-0.4202 -1.1975,-1.2103 -1.6047,-2.3704 z m 8.9895,-5.3301 c -1.4313,-0.5055 -2.9225,-0.9524 -4.4735,-1.3404 -2.1129,-0.5563 -3.4506,-1.1041 -4.013,-1.6433 -0.5793,-0.5563 -0.8689,-1.1884 -0.8689,-1.8963 0,-0.8093 0.2855,-1.471 0.8563,-1.9851 0.5708,-0.5141 1.4102,-0.7712 2.518,-0.7712 1.1586,0 2.2363,0.2782 3.2331,0.8344 0.9969,0.5563 1.7041,1.2349 2.1216,2.0357 0.4176,0.8008 0.6264,1.8418 0.6264,3.123 z" /><path
         id="path54"
         style="fill:#bdbcbc;fill-opacity:1;fill-rule:evenodd;stroke:none"
         d="m 1792.7048,1632.2806 h 9.7375 v -4.3363 c 0.9381,1.884 1.9059,3.1803 2.9036,3.8887 0.9976,0.7084 2.2295,1.0626 3.6957,1.0626 1.5347,0 3.2145,-0.4708 5.0394,-1.4126 l -3.2232,-7.2327 c -1.2277,0.5018 -2.1998,0.7527 -2.9162,0.7527 -1.3643,0 -2.4216,-0.552 -3.1719,-1.656 -1.0746,-1.5557 -1.612,-4.4665 -1.612,-8.7326 v -8.9328 h -10.4529 z" /><path
         id="path56"
         style="fill:#bdbcbc;fill-opacity:1;fill-rule:evenodd;stroke:none"
         d="m 1825.9193,1623.6705 -9.9303,1.025 c 0.374,1.7052 0.9136,3.0468 1.6186,4.0248 0.705,0.978 1.7204,1.8266 3.0461,2.5457 0.9516,0.5179 2.2601,0.9189 3.9255,1.2032 1.6654,0.2843 3.4669,0.4264 5.4045,0.4264 3.1098,0 5.6077,-0.1712 7.4939,-0.5137 1.8861,-0.3425 3.458,-1.0566 4.7156,-2.1425 0.8836,-0.7517 1.5803,-1.8167 2.0902,-3.1951 0.5099,-1.3785 0.7648,-2.6939 0.7648,-3.9464 v -11.7531 c 0,-1.253 0.081,-2.2345 0.2425,-2.9446 0.1617,-0.71 0.5148,-1.6162 1.0592,-2.7186 h -9.7343 c -0.3903,0.6796 -0.645,1.1975 -0.764,1.5539 -0.1189,0.3564 -0.2377,0.9157 -0.3564,1.6781 -1.3611,-1.2824 -2.7137,-2.1982 -4.0579,-2.7476 -1.838,-0.7329 -3.9735,-1.0994 -6.4065,-1.0994 -3.2333,0 -5.688,0.7363 -7.364,2.2089 -1.676,1.4727 -2.514,3.2882 -2.514,5.4466 0,2.025 0.604,3.6901 1.8121,4.9953 1.2081,1.3053 3.4372,2.2759 6.6874,2.9117 3.897,0.7699 6.4241,1.3096 7.5813,1.6192 1.1571,0.3096 2.3822,0.7154 3.6752,1.2172 0,1.253 -0.2631,2.13 -0.7892,2.631 -0.5262,0.501 -1.4516,0.7516 -2.7762,0.7516 -1.6975,0 -2.9706,-0.2691 -3.8194,-0.8072 -0.6626,-0.4202 -1.1975,-1.2103 -1.6047,-2.3704 z m 8.9895,-5.3301 c -1.4313,-0.5055 -2.9224,-0.9524 -4.4735,-1.3404 -2.1129,-0.5563 -3.4505,-1.1041 -4.0129,-1.6433 -0.5793,-0.5563 -0.869,-1.1884 -0.869,-1.8963 0,-0.8093 0.2855,-1.471 0.8563,-1.9851 0.5708,-0.5141 1.4102,-0.7712 2.5181,-0.7712 1.1585,0 2.2362,0.2782 3.2331,0.8344 0.9968,0.5563 1.704,1.2349 2.1216,2.0357 0.4176,0.8008 0.6263,1.8418 0.6263,3.123 z" /><path
         id="path58"
         style="fill:#bdbcbc;fill-opacity:1;fill-rule:evenodd;stroke:none"
         d="m 1870.7516,1632.2806 h 9.7138 v -25.0999 l 0.025,-1.1756 c 0,-1.6683 -0.3614,-3.2575 -1.0841,-4.7675 -0.7227,-1.51 -1.6838,-2.7322 -2.8831,-3.6664 -1.1994,-0.9343 -2.7217,-1.6099 -4.5671,-2.0268 -1.8453,-0.4169 -3.9586,-0.6254 -6.3399,-0.6254 -5.4432,0 -9.1811,0.8018 -11.2137,2.4055 -2.0326,1.6038 -3.0489,3.7504 -3.0489,6.44 0,0.3342 0.017,0.7853 0.052,1.3534 l 10.0879,-1.1276 c 0.2553,-0.9134 0.6465,-1.5444 1.1735,-1.893 0.7649,-0.5147 1.7255,-0.772 2.8819,-0.772 1.4966,0 2.6147,0.3904 3.3543,1.1711 0.7396,0.7808 1.1094,2.1428 1.1094,4.0861 v 4.0111 c -1.0208,-1.1868 -2.0413,-2.0476 -3.0615,-2.5825 -1.599,-0.8355 -3.3254,-1.2533 -5.1792,-1.2533 -3.6231,0 -6.5485,1.5538 -8.7763,4.6614 -1.5821,2.2054 -2.3732,5.1205 -2.3732,8.7455 0,4.1433 1.0206,7.3009 3.0616,9.4729 2.041,2.172 4.7114,3.258 8.0112,3.258 2.1085,0 3.8474,-0.3507 5.2167,-1.0522 1.3692,-0.7015 2.6491,-1.8621 3.8398,-3.4819 v 3.9191 z m -9.7809,-12.8847 c 0,-1.923 0.4172,-3.3484 1.2515,-4.2762 0.8344,-0.9279 1.9326,-1.3918 3.2947,-1.3918 1.2941,0 2.3797,0.4807 3.2568,1.4422 0.8771,0.9615 1.3156,2.412 1.3156,4.3515 0,1.9395 -0.4598,3.4234 -1.3793,4.4516 -0.9195,1.0282 -2.0435,1.5423 -3.3719,1.5423 -1.3279,0 -2.3877,-0.4723 -3.1796,-1.417 -0.7918,-0.9446 -1.1878,-2.5122 -1.1878,-4.7026 z" /><path
         id="path60"
         style="fill:#bdbcbc;fill-opacity:1;fill-rule:evenodd;stroke:none"
         d="m 1887.5031,1642.377 h 10.4007 v -36.6954 h -10.4007 z" /><path
         id="path62"
         style="fill:#bdbcbc;fill-opacity:1;fill-rule:evenodd;stroke:none"
         d="m 1904.9245,1642.377 h 10.4007 v -6.9188 h -10.4007 z m 0,-10.0964 h 10.4007 v -26.599 h -10.4007 z" /><path
         id="path64"
         style="fill:#bdbcbc;fill-opacity:1;fill-rule:evenodd;stroke:none"
         d="m 1950.5165,1642.377 v -36.6954 h -9.7384 v 3.935 c -1.3605,-1.6757 -2.602,-2.807 -3.7246,-3.3937 -1.4972,-0.7709 -3.1642,-1.1563 -5.0011,-1.1563 -3.6907,0 -6.5098,1.3789 -8.4575,4.1368 -1.9477,2.758 -2.9215,6.109 -2.9215,10.0532 0,4.4128 1.0758,7.7892 3.2273,10.1292 2.1516,2.3399 4.8857,3.5098 8.2023,3.5098 1.6153,0 3.0821,-0.2661 4.4005,-0.7984 1.3183,-0.5322 2.4876,-1.3306 3.5078,-2.3951 v 12.6749 z m -10.4284,-23.2966 c 0,2.0933 -0.4499,3.6549 -1.3495,4.685 -0.8997,1.0301 -2.0371,1.5451 -3.4123,1.5451 -1.2054,0 -2.2154,-0.494 -3.0302,-1.4822 -0.8147,-0.9882 -1.2221,-2.6461 -1.2221,-4.9737 0,-2.1771 0.4202,-3.7723 1.2605,-4.7856 0.8403,-1.0132 1.8801,-1.5199 3.1192,-1.5199 1.324,0 2.4274,0.5108 3.3102,1.5324 0.8828,1.0215 1.3242,2.6878 1.3242,4.9989 z" /><path
         id="path66"
         style="fill:#bdbcbc;fill-opacity:1;fill-rule:evenodd;stroke:none"
         d="m 1986.9272,1616.4442 h -20.8536 c 0.1878,-1.6352 0.64,-2.8532 1.3564,-3.654 1.0072,-1.1515 2.3214,-1.7273 3.9427,-1.7273 1.0241,0 1.9967,0.2482 2.9179,0.7447 0.5635,0.315 1.1694,0.8697 1.8178,1.6641 l 10.2439,-0.9226 c -1.5669,-2.6693 -3.4574,-4.5837 -5.6715,-5.7432 -2.2142,-1.1596 -5.3907,-1.7393 -9.5294,-1.7393 -3.5937,0 -6.4211,0.4973 -8.482,1.4918 -2.0609,0.9946 -3.7683,2.574 -5.1223,4.7383 -1.354,2.1643 -2.031,4.7089 -2.031,7.6339 0,4.162 1.3578,7.53 4.0734,10.104 2.7156,2.574 6.4653,3.861 11.2492,3.861 3.8817,0 6.9463,-0.5768 9.1936,-1.7305 2.2474,-1.1536 3.9584,-2.8256 5.133,-5.0157 1.1746,-2.1902 1.7619,-5.0406 1.7619,-8.5513 z m -10.5575,4.8688 c -0.2047,1.979 -0.7468,3.3963 -1.6263,4.2518 -0.8795,0.8555 -2.0363,1.2833 -3.4703,1.2833 -1.6567,0 -2.9802,-0.6458 -3.9705,-1.9372 -0.6315,-0.805 -1.0328,-2.0043 -1.2037,-3.5979 z" /></g></g></svg>