<?xml version="1.0" standalone="no"?>
<!DOCTYPE svg PUBLIC "-//W3C//DTD SVG 20010904//EN"
 "http://www.w3.org/TR/2001/REC-SVG-20010904/DTD/svg10.dtd">
<svg version="1.0" xmlns="http://www.w3.org/2000/svg"
 width="700.000000pt" height="700.000000pt" viewBox="0 0 700.000000 700.000000"
 preserveAspectRatio="xMidYMid meet">
<metadata>
Created by potrace 1.14, written by Peter Selinger 2001-2017
</metadata>
<g transform="translate(0.000000,700.000000) scale(0.100000,-0.100000)"
fill="#000000" stroke="none">
<path d="M3205 6694 c-16 -2 -73 -9 -125 -15 -675 -77 -1334 -394 -1839 -884
-494 -480 -818 -1097 -930 -1775 -65 -393 -52 -838 34 -1222 227 -1008 926
-1847 1875 -2252 670 -285 1439 -333 2135 -132 382 110 771 306 1079 544 588
454 1010 1117 1170 1832 66 298 93 691 67 976 -86 948 -556 1776 -1326 2336
-433 315 -965 520 -1515 583 -122 13 -532 19 -625 9z m977 -1781 l3 -708 703
-3 702 -2 0 -705 0 -705 -705 0 -705 0 0 -705 0 -705 -705 0 -705 0 0 705 0
705 -705 0 -705 0 0 705 0 705 703 2 702 3 3 708 2 707 705 0 705 0 2 -707z"/>
</g>
</svg>
