<svg xmlns="http://www.w3.org/2000/svg" version="1.1" xmlns:xlink="http://www.w3.org/1999/xlink" xmlns:svgjs="http://svgjs.com/svgjs" width="266.66666" height="266.66666"><svg xmlns:dc="http://purl.org/dc/elements/1.1/" xmlns:cc="http://creativecommons.org/ns#" xmlns:rdf="http://www.w3.org/1999/02/22-rdf-syntax-ns#" xmlns:svg="http://www.w3.org/2000/svg" xmlns="http://www.w3.org/2000/svg" viewBox="0 0 266.66666 266.66666" height="266.66666" width="266.66666" xml:space="preserve" id="SvgjsSvg1007" version="1.1"><metadata id="SvgjsMetadata1006"><rdf:rdf><cc:work rdf:about=""><dc:format>image/svg+xml</dc:format><dc:type rdf:resource="http://purl.org/dc/dcmitype/StillImage"></dc:type></cc:work></rdf:rdf></metadata><defs id="SvgjsDefs1005"></defs><g transform="matrix(1.3333333,0,0,-1.3333333,0,266.66667)" id="SvgjsG1004"><g transform="translate(-1692,-1584)" id="SvgjsG1003"><path id="SvgjsPath1002" style="fill:#cd071e;fill-opacity:1;fill-rule:nonzero;stroke:#ffffff;stroke-width:2;stroke-linecap:butt;stroke-linejoin:miter;stroke-miterlimit:3.86360002;stroke-dasharray:none;stroke-opacity:1" d="m 1699.7589,1683.9254 c 0,50.5462 40.9792,91.5209 91.5311,91.5209 50.5519,0 91.5312,-40.9747 91.5312,-91.5209 0,-50.5462 -40.9793,-91.5208 -91.5312,-91.5208 -50.5519,0 -91.5311,40.9746 -91.5311,91.5208 z"></path><path id="SvgjsPath1001" style="fill:#cd071e;fill-opacity:1;fill-rule:nonzero;stroke:none" d="m 1699.7589,1683.9254 c 0,50.5462 40.9792,91.5209 91.5311,91.5209 50.5519,0 91.5312,-40.9747 91.5312,-91.5209 0,-50.5462 -40.9793,-91.5208 -91.5312,-91.5208 -50.5519,0 -91.5311,40.9746 -91.5311,91.5208 z"></path><path id="SvgjsPath1000" style="fill:#ffffff;fill-opacity:1;fill-rule:nonzero;stroke:none" d="m 1730.6296,1663.6197 v 40.6057 h 40.3573 v 40.3517 h 40.6115 v -40.3517 h 40.352 v -40.6057 h -40.352 v -40.3459 h -40.6115 v 40.3459 z"></path></g></g></svg><style>@media (prefers-color-scheme: light) { :root { filter: none; } }
</style></svg>